<svg version="1.1" id="Layer_1" xmlns="http://www.w3.org/2000/svg" xmlns:xlink="http://www.w3.org/1999/xlink" x="0px" y="0px"
	 width="100%" viewBox="0 0 1024 1024" enable-background="new 0 0 1024 1024" xml:space="preserve">
<path fill="#000000" opacity="1.000000" stroke="none" 
	d="
M511.675659,637.316528 
	C492.127228,615.203552 471.072968,594.994995 451.319794,573.586426 
	C418.335907,537.838440 384.472595,502.928284 351.322235,467.358734 
	C320.974731,434.796661 288.252197,404.641479 257.902100,372.136078 
	C248.592346,362.165192 239.286957,352.189545 230.705338,341.537567 
	C200.060043,303.499084 212.590714,254.812775 245.089142,228.117966 
	C271.561401,206.373199 310.699768,206.339355 339.315918,225.455032 
	C350.754608,233.096085 360.240601,242.901566 369.471527,252.959732 
	C408.436371,295.416534 448.056854,337.305115 486.269653,380.406860 
	C514.703369,412.478424 545.510010,442.175415 574.328735,473.807678 
	C595.864197,497.445587 617.640442,520.873657 639.713013,544.010132 
	C668.001953,573.662537 694.446472,604.989807 722.572876,634.769043 
	C746.024231,659.598633 767.973816,685.732422 790.627197,711.252136 
	C801.745605,723.777344 810.877380,737.622925 815.138000,754.221558 
	C817.172729,762.148560 816.268311,770.120972 816.310608,778.070618 
	C816.470459,808.085754 796.181763,835.648865 769.798340,844.674622 
	C743.707092,853.600220 717.968628,851.406128 694.418213,835.310730 
	C681.612610,826.559021 671.780823,814.733826 661.328247,803.588928 
	C628.405518,768.485779 596.760742,732.200073 563.303406,697.587097 
	C554.853516,688.845398 545.657349,680.562622 538.682495,670.735718 
	C532.448120,661.952026 526.093445,653.375732 518.997131,645.311829 
	C516.688232,642.688110 514.285461,640.146973 511.675659,637.316528 
M421.357300,361.140900 
	C401.813660,339.728241 382.231995,318.350128 362.741180,296.889496 
	C351.652740,284.680420 341.008392,272.069702 329.111328,260.602509 
	C317.089294,249.014877 303.101532,243.805603 286.342865,246.313202 
	C256.321747,250.805237 239.204315,283.476288 252.874573,310.495300 
	C256.725769,318.107117 261.533051,325.076904 267.063751,331.591888 
	C282.730377,350.046692 300.641907,366.324677 317.356934,383.759033 
	C356.909546,425.013702 396.153290,466.564423 435.690216,507.834137 
	C463.815491,537.192017 491.687164,566.786499 519.624329,596.320862 
	C541.273560,619.207764 561.319031,643.517334 583.140869,666.225403 
	C612.468811,696.744507 640.906189,728.088257 669.422607,759.360107 
	C681.994995,773.147339 693.731445,787.706238 707.159485,800.701538 
	C718.827148,811.993286 732.511780,817.438049 748.996643,814.751343 
	C774.094421,810.660950 793.968750,777.737427 777.252502,751.209045 
	C771.008057,741.299377 763.517883,732.373657 755.745178,723.676147 
	C746.753479,713.614563 736.563843,704.422546 728.848999,693.475464 
	C720.560608,681.714783 711.261536,670.986084 701.796082,660.291565 
	C682.796936,638.825317 662.546448,618.531616 643.039429,597.543335 
	C593.472534,544.212646 544.249817,490.560760 494.493011,437.408478 
	C470.586426,411.870514 445.362305,387.576538 421.357300,361.140900 
z"/>
<path fill="#000000" opacity="1.000000" stroke="none" 
	d="
M611.223328,308.226837 
	C633.839111,284.197906 655.740417,259.950806 679.252136,237.297684 
	C700.405212,216.917053 725.827454,208.002304 755.190674,213.017380 
	C777.278259,216.789810 792.901062,230.043243 804.906433,248.414780 
	C816.003113,265.395813 818.248169,284.201019 815.945496,303.531097 
	C814.312805,317.236603 807.721680,329.550781 799.750427,340.700439 
	C788.316589,356.693329 774.980652,371.189789 762.162598,386.074799 
	C756.433289,392.727936 752.811707,392.992310 746.073975,387.401611 
	C740.313843,382.622162 734.843384,377.474915 729.455139,372.272552 
	C725.761169,368.706085 726.195740,366.752106 730.341675,363.423370 
	C747.037048,350.018768 762.185486,335.110931 774.046143,317.161316 
	C791.845398,290.224304 778.099060,254.534164 746.982239,247.705780 
	C729.579041,243.886749 714.589111,250.060242 702.561340,262.488007 
	C679.165649,286.661896 656.264404,311.314270 633.147156,335.757874 
	C615.297607,354.631592 597.388123,373.448914 579.595215,392.375885 
	C573.440430,398.923004 567.450012,405.633240 561.592346,412.447632 
	C558.541443,415.996735 555.926758,415.763580 552.925476,412.578033 
	C547.788696,407.125763 542.676819,401.642456 537.345215,396.384277 
	C534.346130,393.426422 534.270752,390.714630 536.993774,387.743530 
	C539.919739,384.551086 542.897644,381.406311 545.852783,378.240509 
	C567.559937,354.986053 589.267029,331.731598 611.223328,308.226837 
z"/>
<path fill="#000000" opacity="1.000000" stroke="none" 
	d="
M267.774139,734.772339 
	C262.898712,741.099915 257.575684,746.609009 253.927368,753.459167 
	C241.138412,777.471863 250.353668,801.736572 274.287811,812.302429 
	C287.621399,818.188599 300.873199,815.455261 313.742767,809.268005 
	C326.902100,802.941528 336.106445,792.162170 345.730377,781.876770 
	C363.934113,762.421875 381.775116,742.627808 399.960876,723.155945 
	C419.169708,702.588623 438.582123,682.211182 457.955231,661.797852 
	C463.570007,655.881592 469.289124,650.060364 475.085175,644.321594 
	C479.155457,640.291504 480.998291,640.265137 485.185699,644.298462 
	C489.982697,648.919006 494.545807,653.781921 499.225922,658.524353 
	C502.586914,661.930115 502.836700,664.906128 499.309113,668.781555 
	C485.065491,684.429688 469.952545,699.231018 455.370880,714.543335 
	C426.780792,744.566101 398.568085,774.947754 370.092743,805.080261 
	C358.555664,817.288879 347.138977,829.558716 332.592865,838.557129 
	C303.359131,856.641296 255.377747,853.929810 231.427887,823.899292 
	C216.132034,804.720032 210.173386,783.210632 215.955078,758.488647 
	C219.789795,742.091858 228.972794,729.097473 238.754425,716.316345 
	C248.471573,703.619507 259.228180,691.753967 270.828674,680.700928 
	C278.583374,673.312195 281.346069,673.361816 289.235199,680.716309 
	C292.637848,683.888428 296.440613,686.650635 299.689117,689.964294 
	C304.035339,694.397461 303.753601,695.784241 299.499390,700.354187 
	C288.948151,711.688293 278.490814,723.109680 267.774139,734.772339 
z"/>
<path fill="#000000" opacity="1.000000" stroke="none" 
	d="
M150.000854,544.218201 
	C141.339554,544.241211 133.177948,544.309509 125.016937,544.266663 
	C113.553772,544.206482 109.641548,536.657776 109.090530,528.660034 
	C108.519661,520.374146 115.800888,513.252686 124.592659,512.836670 
	C129.911148,512.585022 135.250168,512.756958 140.579971,512.756409 
	C210.535416,512.749023 280.490875,512.749390 350.446320,512.732178 
	C357.269409,512.730469 363.258606,514.601807 367.664886,520.134399 
	C372.067932,525.662903 372.584625,531.809753 369.467743,537.924805 
	C366.630585,543.491089 361.867340,546.503967 355.315155,546.393555 
	C311.861694,545.661072 268.408752,544.859375 224.952560,544.340759 
	C200.138351,544.044617 175.318268,544.239929 150.000854,544.218201 
z"/>
<path fill="#000000" opacity="1.000000" stroke="none" 
	d="
M352.828979,732.822693 
	C343.762482,742.590759 334.988129,752.150208 326.101471,761.604004 
	C319.207306,768.938232 311.217529,773.403503 300.738525,770.204651 
	C292.555939,767.706787 288.054291,758.363403 290.606903,750.158386 
	C292.678375,743.500061 296.988892,738.457275 301.847595,733.920044 
	C340.321960,697.991577 375.708069,659.036377 412.461761,621.421997 
	C420.016174,613.690674 427.192291,605.556702 435.476532,598.552856 
	C440.058777,594.678772 442.417572,594.654114 446.687897,598.782349 
	C451.474823,603.409912 456.160492,608.145142 460.803314,612.918091 
	C464.919464,617.149597 465.047058,618.741516 460.889526,622.911072 
	C440.087463,643.773499 419.058105,664.410706 398.371307,685.386047 
	C383.063171,700.907776 368.157654,716.826599 352.828979,732.822693 
z"/>
<path fill="#000000" opacity="1.000000" stroke="none" 
	d="
M887.881348,544.279541 
	C836.935181,542.850891 786.472473,544.143005 736.014893,544.457275 
	C719.379211,544.560852 702.723389,545.291077 686.072449,545.221130 
	C678.304626,545.188477 672.407593,541.819275 669.061035,534.388489 
	C665.412109,526.286255 668.768311,517.825989 677.228210,514.579285 
	C680.685303,513.252625 684.265198,512.707947 687.987793,512.721008 
	C734.131714,512.883484 780.280884,512.632385 826.417786,513.272888 
	C852.068665,513.628967 877.716309,513.470520 903.363220,513.797058 
	C909.368042,513.873535 915.060486,514.780518 918.765930,520.300720 
	C925.385132,530.161621 918.177734,543.370544 905.323730,544.750671 
	C902.365479,545.068359 899.337891,544.802063 896.344788,544.714844 
	C893.683533,544.637390 891.025940,544.435791 887.881348,544.279541 
z"/>
<path fill="#000000" opacity="1.000000" stroke="none" 
	d="
M723.364197,334.363647 
	C713.644775,343.767151 705.286194,353.986359 696.076477,363.343475 
	C682.996277,376.633026 669.509460,389.518707 656.870056,403.253662 
	C639.730591,421.878601 621.602722,439.583099 605.066711,458.770477 
	C603.286316,460.836334 601.395996,461.753906 599.023376,460.107941 
	C591.023193,454.557861 584.458618,447.468903 578.127502,440.168640 
	C576.128601,437.863739 577.792358,435.745270 579.188904,433.879150 
	C584.306580,427.040314 590.825989,421.516632 596.728699,415.416473 
	C615.606018,395.907837 634.367310,376.280914 653.545349,357.070984 
	C672.624512,337.960083 690.269043,317.555573 708.473572,297.652802 
	C716.955200,288.380005 728.640747,288.266754 736.420227,296.995911 
	C741.687805,302.906525 741.621582,313.269196 736.210205,320.593933 
	C732.529419,325.576202 727.899231,329.687012 723.364197,334.363647 
z"/>
<path fill="#000000" opacity="1.000000" stroke="none" 
	d="
M204.000000,486.098572 
	C183.176392,485.806732 162.853455,485.386902 142.528870,485.282806 
	C132.706863,485.232513 122.882172,485.789581 113.058014,486.045441 
	C106.000084,486.229248 100.082069,483.377350 95.009506,478.770569 
	C88.617859,472.965851 88.107025,466.540405 93.816765,459.926453 
	C98.073906,454.995178 103.576630,451.841980 110.359558,451.834747 
	C169.356049,451.771759 228.352600,451.723602 287.349121,451.727722 
	C295.449005,451.728271 301.377594,456.212616 305.339081,462.620972 
	C310.477966,470.933990 304.023438,482.778992 293.427643,485.226288 
	C290.543274,485.892487 287.479279,485.981262 284.496674,485.990265 
	C257.831238,486.070862 231.165588,486.074310 204.000000,486.098572 
z"/>
<path fill="#000000" opacity="1.000000" stroke="none" 
	d="
M132.000000,604.200806 
	C123.005440,604.207214 114.506882,604.379456 106.017326,604.175842 
	C95.149193,603.915222 87.884109,595.548035 89.934669,585.992981 
	C91.250366,579.862183 99.895905,573.078857 107.121147,572.710327 
	C111.109077,572.506958 115.113701,572.622253 119.110847,572.609375 
	C174.569702,572.430481 230.028564,572.256226 285.487427,572.075623 
	C294.291626,572.046936 302.283630,574.126099 308.496826,580.863037 
	C313.424377,586.206055 313.644196,591.347473 309.084869,596.949036 
	C304.658936,602.386780 299.270905,605.556030 291.870575,605.324646 
	C238.757812,603.663513 185.625122,604.404419 132.000000,604.200806 
z"/>
<path fill="#000000" opacity="1.000000" stroke="none" 
	d="
M735.111023,483.192566 
	C730.223450,479.810242 727.611145,475.172272 725.614014,470.188202 
	C723.619507,465.210602 730.040710,455.718628 736.535095,453.784424 
	C739.769165,452.821228 743.108704,452.757141 746.442139,452.755981 
	C804.242676,452.735992 862.043213,452.742981 919.843750,452.690643 
	C925.680420,452.685364 930.616699,454.569824 934.584351,458.826202 
	C940.359619,465.021637 940.264771,472.311707 934.408936,478.410828 
	C930.046997,482.953979 924.819641,485.440704 918.419128,485.380035 
	C910.257690,485.302643 902.094910,485.310120 893.932922,485.341125 
	C846.298462,485.522156 798.664001,485.751831 751.029358,485.869873 
	C745.749512,485.882965 740.318787,486.206482 735.111023,483.192566 
z"/>
<path fill="#000000" opacity="1.000000" stroke="none" 
	d="
M863.000000,572.880127 
	C882.321167,572.821533 901.142334,572.715942 919.963501,572.720093 
	C927.905396,572.721863 934.116394,576.103882 938.135864,583.027893 
	C942.789185,591.044067 937.594910,601.659241 928.354004,603.303284 
	C924.571350,603.976257 920.777771,604.221497 916.931458,604.221497 
	C863.965027,604.221130 810.998596,604.269653 758.032166,604.312988 
	C752.539490,604.317444 747.045837,604.443542 741.554382,604.374573 
	C732.914246,604.265991 726.156006,599.349182 724.827637,592.348389 
	C723.722839,586.525574 729.208740,577.893005 735.882690,574.900085 
	C739.610657,573.228455 743.521545,572.746033 747.572754,572.752930 
	C785.881836,572.818176 824.190918,572.841858 863.000000,572.880127 
z"/>
<path fill="#000000" opacity="1.000000" stroke="none" 
	d="
M529.085693,311.753235 
	C528.991089,266.002411 528.872192,220.725754 528.883301,175.449142 
	C528.885742,165.750351 536.054626,157.885208 544.411926,157.838486 
	C553.424438,157.788071 560.152954,165.095383 560.196960,175.396332 
	C560.306458,201.031021 560.186462,226.666763 560.317139,252.301254 
	C560.424072,273.269409 560.799805,294.236115 560.961670,315.204163 
	C560.996155,319.671265 561.159668,324.303375 559.136780,328.413788 
	C555.797363,335.199127 548.531799,339.147125 542.473999,337.892853 
	C535.895996,336.530853 530.510315,329.753845 529.714478,321.690765 
	C529.404175,318.546997 529.303894,315.382477 529.085693,311.753235 
z"/>
<path fill="#000000" opacity="1.000000" stroke="none" 
	d="
M466.753296,167.300476 
	C470.981689,159.931183 477.378204,156.631714 483.772919,158.236542 
	C491.350830,160.138275 496.940765,167.341125 496.972412,175.630859 
	C497.079254,203.623077 497.106262,231.615646 497.145569,259.608093 
	C497.172913,279.102875 497.154846,298.597717 497.195984,318.092468 
	C497.203125,321.471985 496.899750,324.728424 495.111450,327.713928 
	C491.379059,333.944946 485.543945,337.888916 481.469055,336.874481 
	C473.221191,334.821228 465.695038,326.539825 465.675842,318.993195 
	C465.594971,287.168732 465.640259,255.343948 465.640747,223.519287 
	C465.641022,207.356918 465.636475,191.194550 465.654510,175.032211 
	C465.657288,172.546280 465.407806,170.014130 466.753296,167.300476 
z"/>
<path fill="#000000" opacity="1.000000" stroke="none" 
	d="
M497.180054,768.000000 
	C497.125336,792.992676 497.137878,817.485840 496.985901,841.977905 
	C496.922821,852.133728 496.511353,862.287415 496.251801,872.442017 
	C496.056732,880.072998 490.176971,887.278503 483.413757,888.188843 
	C476.391632,889.134155 467.982513,883.268921 466.158600,875.808228 
	C465.415588,872.768738 465.166595,869.542786 465.155518,866.400085 
	C465.006561,824.246460 464.926910,782.092590 464.863190,739.938782 
	C464.851105,731.934326 473.357147,722.692993 481.286346,721.944031 
	C488.138031,721.296814 497.074249,729.613708 497.170776,737.009277 
	C497.303436,747.171143 497.189331,757.336243 497.180054,768.000000 
z"/>
<path fill="#000000" opacity="1.000000" stroke="none" 
	d="
M529.744019,859.989502 
	C528.669312,818.882080 528.867798,778.262024 528.645142,737.644653 
	C528.603149,729.976685 532.364990,724.744751 537.720581,720.222229 
	C541.072327,717.391968 544.874390,716.876526 548.806091,719.337158 
	C555.762939,723.691162 560.477844,728.939697 560.423889,738.113831 
	C560.192749,777.401306 560.380249,816.691833 560.582214,855.980408 
	C560.606995,860.805420 560.660828,865.606201 560.369629,870.427429 
	C559.825562,879.434998 552.998779,887.203552 545.286743,887.335693 
	C537.960083,887.461182 530.280579,879.185730 529.793335,870.475098 
	C529.607666,867.155273 529.750732,863.817017 529.744019,859.989502 
z"/>
<path fill="#000000" opacity="1.000000" stroke="none" 
	d="
M305.478302,666.411255 
	C298.321533,655.893433 298.722992,648.465698 307.801086,640.046814 
	C337.006531,612.961914 363.488220,583.158936 392.350128,555.740112 
	C397.323334,551.015625 397.457001,550.975647 402.364044,555.786072 
	C406.882050,560.215088 411.363190,564.700378 415.581696,569.410645 
	C419.503906,573.790222 419.300812,577.234497 415.154633,581.113770 
	C386.908997,607.540894 361.651764,636.881714 334.193909,664.075439 
	C331.000397,667.238220 327.926025,670.539795 324.549103,673.494385 
	C319.795898,677.653137 317.060211,677.637207 312.294678,673.509888 
	C309.915649,671.449524 307.895477,668.974854 305.478302,666.411255 
z"/>
<path fill="#000000" opacity="1.000000" stroke="none" 
	d="
M633.541992,500.464600 
	C630.865967,497.703186 628.418091,495.209991 626.007019,492.681732 
	C620.477661,486.883667 620.323792,484.912262 625.799438,478.851166 
	C635.051453,468.609650 644.298523,458.352509 654.451233,448.970581 
	C657.747742,445.924377 661.059692,442.894897 664.370117,439.863861 
	C666.140747,438.242737 668.266174,437.440002 670.229431,439.074799 
	C676.224731,444.067047 682.952515,448.219421 688.041992,454.259155 
	C692.042114,459.006104 692.075439,461.502045 687.710999,465.906555 
	C680.106689,473.580780 672.255127,481.009644 664.621948,488.655945 
	C659.928162,493.357819 655.541809,498.366547 650.848694,503.069122 
	C644.159668,509.771576 642.413025,509.679352 635.876526,502.862579 
	C635.185608,502.142029 634.483765,501.431885 633.541992,500.464600 
z"/>
<path fill="#000000" opacity="1.000000" stroke="none" 
	d="
M734.286255,416.221558 
	C733.793213,428.175842 728.032104,435.230560 717.275330,437.514893 
	C704.893372,440.144348 694.227722,435.859863 689.528442,426.368805 
	C685.846252,418.932068 687.578186,407.765198 693.339661,401.795166 
	C700.489197,394.386810 709.542297,392.443726 718.266602,396.315277 
	C726.884888,400.139771 732.634949,406.253571 734.286255,416.221558 
z"/>
<path fill="#000000" opacity="1.000000" stroke="none" 
	d="
M862.621155,232.671417 
	C871.456665,230.681946 872.111267,231.054840 874.031433,238.874756 
	C874.626282,241.297318 875.091248,243.751526 875.662354,246.180252 
	C876.193665,248.439774 876.787109,250.684692 877.686035,254.259293 
	C879.246521,247.491302 880.791016,241.977341 881.731201,236.362167 
	C882.569153,231.356842 885.903809,231.669327 889.535461,231.715332 
	C893.657959,231.767517 893.297180,234.601791 893.299683,237.289398 
	C893.306213,244.455948 893.316223,251.622543 893.290527,258.789001 
	C893.281067,261.431091 893.766846,264.400513 889.541687,264.285736 
	C885.349792,264.171875 885.989075,261.114349 885.939880,258.542999 
	C885.861267,254.435486 885.918823,250.325394 885.302246,246.142868 
	C884.252930,250.812088 883.185120,255.477280 882.161682,260.152161 
	C881.614929,262.649933 880.641357,264.359741 877.578674,264.349304 
	C874.599121,264.339142 873.428711,262.847046 872.894348,260.259674 
	C871.925781,255.569656 870.892395,250.893051 869.213989,246.269012 
	C869.213989,250.824814 869.202454,255.380646 869.218628,259.936371 
	C869.227112,262.327637 868.810364,264.203125 865.754089,264.284119 
	C862.577454,264.368256 861.673645,262.680481 861.772339,259.919098 
	C862.092957,250.949646 861.057800,241.953537 862.621155,232.671417 
z"/>
<path fill="#000000" opacity="1.000000" stroke="none" 
	d="
M844.244934,264.147644 
	C841.560608,262.841858 842.093323,260.651367 842.062073,258.740082 
	C841.980591,253.746338 841.918030,248.747498 842.056946,243.756516 
	C842.157349,240.148026 841.195251,237.945084 837.024597,238.365463 
	C834.673584,238.602448 832.689392,238.136444 832.783752,234.982040 
	C832.878601,231.812958 835.008240,231.728607 837.275940,231.728088 
	C843.270081,231.726715 849.264221,231.734940 855.258362,231.747238 
	C857.472168,231.751785 859.181885,232.256195 859.207336,235.036240 
	C859.232544,237.783524 857.644104,238.583878 855.369324,238.341782 
	C851.074280,237.884674 849.869019,239.933899 850.054565,243.895874 
	C850.288025,248.880173 849.962280,253.889618 850.161438,258.876892 
	C850.322449,262.908844 848.952393,264.943115 844.244934,264.147644 
z"/>
<path fill="#000000" opacity="1.000000" stroke="none" 
	d="
M604.200500,643.789673 
	C566.443787,602.197876 526.634888,563.058289 488.298676,522.512207 
	C451.679047,483.781616 415.077942,445.032227 378.690063,406.084198 
	C352.194458,377.724457 326.100647,348.989807 299.261139,320.949493 
	C296.503510,318.068512 294.008270,314.940063 292.692963,311.029755 
	C290.166595,303.519135 292.038574,297.355408 298.258575,293.091064 
	C303.383514,289.577454 311.994354,289.899933 316.884064,294.491333 
	C324.408295,301.556549 331.626190,308.956390 338.819336,316.364502 
	C390.691956,369.787231 440.045227,425.583038 492.009918,478.923645 
	C523.511230,511.259064 555.081970,543.542236 585.919495,576.505615 
	C633.597046,627.470032 680.875549,678.813110 727.296082,730.932495 
	C734.177856,738.659180 736.572937,747.895081 732.735107,757.869324 
	C729.530090,766.199097 722.187134,768.207336 715.097412,762.821960 
	C706.157654,756.031494 698.880981,747.470642 691.560059,739.081299 
	C663.294006,706.690369 632.973755,676.190735 604.200500,643.789673 
z"/>
</svg>